<?xml version="1.0" encoding="iso-8859-1"?>
<!-- Generator: Adobe Illustrator 18.1.1, SVG Export Plug-In . SVG Version: 6.00 Build 0)  -->
<!DOCTYPE svg PUBLIC "-//W3C//DTD SVG 1.1//EN" "http://www.w3.org/Graphics/SVG/1.1/DTD/svg11.dtd">
<svg version="1.1" id="Layer_1" xmlns="http://www.w3.org/2000/svg" xmlns:xlink="http://www.w3.org/1999/xlink" x="0px" y="0px"
	 viewBox="0 0 128 128" style="enable-background:new 0 0 128 128;" xml:space="preserve">
<g>
	<g>
		<path style="fill:#2B94DE;" d="M105.503,62.357l-13.827,2.331l-8.611,9.273l22.844-3.85c-0.211,7.342-2.094,14.268-5.287,20.413
			l-74.631,12.58c-5.116-4.858-9.152-10.838-11.706-17.549l30.217-5.093l0.919-7.977l-33.295,5.612
			c-0.609-3.028-0.932-6.158-0.932-9.362c0-4.389,0.612-8.636,1.733-12.673l44.539-7.507l8.571-9.266L16.128,47.7
			c7.76-15.613,23.864-26.372,42.44-26.372c7.136,0,13.903,1.595,19.976,4.436l7.56-8.174c-8.199-4.438-17.578-6.962-27.537-6.962
			C26.55,10.628,0.5,36.695,0.5,68.734c0,32.039,26.05,58.105,58.069,58.105s58.069-26.066,58.069-58.105
			c0-8.902-2.017-17.34-5.608-24.889l-7.996,8.611C104.192,55.616,105.04,58.925,105.503,62.357z M58.569,116.139
			c-8.811,0-17.064-2.427-24.138-6.637l60.273-10.16C86.007,109.607,73.039,116.139,58.569,116.139z"/>
	</g>
	<path style="fill:#2B94DE;" d="M108.091,1.161c-0.001,0-0.001,0-0.002,0c-0.587,0-1.106,0.016-1.464,0.4L50.904,61.386
		c-0.28,0.302-0.461,0.644-0.508,1.056L48.021,83.03c-0.064,0.557,0.1,1.081,0.462,1.498c0.434,0.5,1.075,0.732,1.733,0.619
		l20.004-3.458c0.401-0.069,0.777-0.275,1.058-0.577l55.702-59.908c0.373-0.401,0.56-0.762,0.512-1.348
		C126.5,7.373,120.153,1.161,108.091,1.161z M116.858,30.075c-0.37,0.378-0.855,0.567-1.339,0.567c-0.484,0-0.969-0.189-1.339-0.567
		L99.037,14.582c-0.739-0.756-0.739-1.982,0-2.739c0.74-0.756,1.938-0.756,2.678,0l15.143,15.492
		C117.597,28.092,117.597,29.319,116.858,30.075z"/>
</g>
</svg>
